<mxfile host="app.diagrams.net" agent="Mozilla/5.0 (Macintosh; Intel Mac OS X 10_15_7) AppleWebKit/537.36 (KHTML, like Gecko) Chrome/129.0.0.0 Safari/537.36" version="24.7.7">
  <diagram id="Ht1M8jgEwFfnCIfOTk4-" name="Page-1">
    <mxGraphModel dx="1578" dy="857" grid="1" gridSize="10" guides="1" tooltips="1" connect="1" arrows="1" fold="1" page="1" pageScale="1" pageWidth="1169" pageHeight="827" math="0" shadow="0">
      <root>
        <mxCell id="0" />
        <mxCell id="1" parent="0" />
        <mxCell id="UEzPUAAOIrF-is8g5C7q-74" value="AWS Cloud" style="points=[[0,0],[0.25,0],[0.5,0],[0.75,0],[1,0],[1,0.25],[1,0.5],[1,0.75],[1,1],[0.75,1],[0.5,1],[0.25,1],[0,1],[0,0.75],[0,0.5],[0,0.25]];outlineConnect=0;gradientColor=none;html=1;whiteSpace=wrap;fontSize=12;fontStyle=0;shape=mxgraph.aws4.group;grIcon=mxgraph.aws4.group_aws_cloud_alt;strokeColor=#232F3E;fillColor=none;verticalAlign=top;align=left;spacingLeft=30;fontColor=#232F3E;dashed=0;labelBackgroundColor=#ffffff;container=1;pointerEvents=0;collapsible=0;recursiveResize=0;" parent="1" vertex="1">
          <mxGeometry x="190" y="40" width="610" height="560" as="geometry" />
        </mxCell>
        <mxCell id="U6CJ4-wO5lqKbuCxZ8Id-1" value="VPC 10,0.0.0/16" style="points=[[0,0],[0.25,0],[0.5,0],[0.75,0],[1,0],[1,0.25],[1,0.5],[1,0.75],[1,1],[0.75,1],[0.5,1],[0.25,1],[0,1],[0,0.75],[0,0.5],[0,0.25]];outlineConnect=0;gradientColor=none;html=1;whiteSpace=wrap;fontSize=12;fontStyle=0;container=1;pointerEvents=0;collapsible=0;recursiveResize=0;shape=mxgraph.aws4.group;grIcon=mxgraph.aws4.group_vpc2;strokeColor=#8C4FFF;fillColor=none;verticalAlign=top;align=left;spacingLeft=30;fontColor=#AAB7B8;dashed=0;" vertex="1" parent="UEzPUAAOIrF-is8g5C7q-74">
          <mxGeometry x="30" y="40" width="460" height="420" as="geometry" />
        </mxCell>
        <mxCell id="U6CJ4-wO5lqKbuCxZ8Id-11" value="Public subnet" style="points=[[0,0],[0.25,0],[0.5,0],[0.75,0],[1,0],[1,0.25],[1,0.5],[1,0.75],[1,1],[0.75,1],[0.5,1],[0.25,1],[0,1],[0,0.75],[0,0.5],[0,0.25]];outlineConnect=0;gradientColor=none;html=1;whiteSpace=wrap;fontSize=12;fontStyle=0;container=1;pointerEvents=0;collapsible=0;recursiveResize=0;shape=mxgraph.aws4.group;grIcon=mxgraph.aws4.group_security_group;grStroke=0;strokeColor=#7AA116;fillColor=#F2F6E8;verticalAlign=top;align=left;spacingLeft=30;fontColor=#248814;dashed=0;" vertex="1" parent="U6CJ4-wO5lqKbuCxZ8Id-1">
          <mxGeometry x="20" y="50" width="177" height="300" as="geometry" />
        </mxCell>
        <mxCell id="U6CJ4-wO5lqKbuCxZ8Id-15" value="load balancer" style="sketch=0;outlineConnect=0;fontColor=#232F3E;gradientColor=none;fillColor=#8C4FFF;strokeColor=none;dashed=0;verticalLabelPosition=bottom;verticalAlign=top;align=center;html=1;fontSize=12;fontStyle=0;aspect=fixed;pointerEvents=1;shape=mxgraph.aws4.application_load_balancer;" vertex="1" parent="U6CJ4-wO5lqKbuCxZ8Id-11">
          <mxGeometry x="49.5" y="121" width="78" height="78" as="geometry" />
        </mxCell>
        <mxCell id="U6CJ4-wO5lqKbuCxZ8Id-10" value="Private subnet" style="points=[[0,0],[0.25,0],[0.5,0],[0.75,0],[1,0],[1,0.25],[1,0.5],[1,0.75],[1,1],[0.75,1],[0.5,1],[0.25,1],[0,1],[0,0.75],[0,0.5],[0,0.25]];outlineConnect=0;gradientColor=none;html=1;whiteSpace=wrap;fontSize=12;fontStyle=0;container=1;pointerEvents=0;collapsible=0;recursiveResize=0;shape=mxgraph.aws4.group;grIcon=mxgraph.aws4.group_security_group;grStroke=0;strokeColor=#00A4A6;fillColor=#E6F6F7;verticalAlign=top;align=left;spacingLeft=30;fontColor=#147EBA;dashed=0;" vertex="1" parent="U6CJ4-wO5lqKbuCxZ8Id-1">
          <mxGeometry x="220" y="50" width="220" height="300" as="geometry" />
        </mxCell>
        <mxCell id="U6CJ4-wO5lqKbuCxZ8Id-16" value="Auto Scaling group" style="points=[[0,0],[0.25,0],[0.5,0],[0.75,0],[1,0],[1,0.25],[1,0.5],[1,0.75],[1,1],[0.75,1],[0.5,1],[0.25,1],[0,1],[0,0.75],[0,0.5],[0,0.25]];outlineConnect=0;gradientColor=none;html=1;whiteSpace=wrap;fontSize=12;fontStyle=0;container=1;pointerEvents=0;collapsible=0;recursiveResize=0;shape=mxgraph.aws4.groupCenter;grIcon=mxgraph.aws4.group_auto_scaling_group;grStroke=1;strokeColor=#D86613;fillColor=none;verticalAlign=top;align=center;fontColor=#D86613;dashed=1;spacingTop=25;" vertex="1" parent="U6CJ4-wO5lqKbuCxZ8Id-10">
          <mxGeometry x="40" y="40" width="150" height="230" as="geometry" />
        </mxCell>
        <mxCell id="U6CJ4-wO5lqKbuCxZ8Id-17" value="ec2 instance" style="sketch=0;outlineConnect=0;fontColor=#232F3E;gradientColor=none;fillColor=#ED7100;strokeColor=none;dashed=0;verticalLabelPosition=bottom;verticalAlign=top;align=center;html=1;fontSize=12;fontStyle=0;aspect=fixed;pointerEvents=1;shape=mxgraph.aws4.instance2;" vertex="1" parent="U6CJ4-wO5lqKbuCxZ8Id-16">
          <mxGeometry x="51" y="155" width="48" height="48" as="geometry" />
        </mxCell>
        <mxCell id="U6CJ4-wO5lqKbuCxZ8Id-18" value="ec2 instance" style="sketch=0;outlineConnect=0;fontColor=#232F3E;gradientColor=none;fillColor=#ED7100;strokeColor=none;dashed=0;verticalLabelPosition=bottom;verticalAlign=top;align=center;html=1;fontSize=12;fontStyle=0;aspect=fixed;pointerEvents=1;shape=mxgraph.aws4.instance2;" vertex="1" parent="U6CJ4-wO5lqKbuCxZ8Id-16">
          <mxGeometry x="51" y="70" width="48" height="48" as="geometry" />
        </mxCell>
        <mxCell id="U6CJ4-wO5lqKbuCxZ8Id-8" value="nat" style="sketch=0;outlineConnect=0;fontColor=#232F3E;gradientColor=none;fillColor=#8C4FFF;strokeColor=none;dashed=0;verticalLabelPosition=bottom;verticalAlign=top;align=center;html=1;fontSize=12;fontStyle=0;aspect=fixed;pointerEvents=1;shape=mxgraph.aws4.nat_gateway;" vertex="1" parent="U6CJ4-wO5lqKbuCxZ8Id-1">
          <mxGeometry x="312.25" y="330" width="35.5" height="35.5" as="geometry" />
        </mxCell>
        <mxCell id="U6CJ4-wO5lqKbuCxZ8Id-13" value="nat" style="sketch=0;outlineConnect=0;fontColor=#232F3E;gradientColor=none;fillColor=#8C4FFF;strokeColor=none;dashed=0;verticalLabelPosition=bottom;verticalAlign=top;align=center;html=1;fontSize=12;fontStyle=0;aspect=fixed;pointerEvents=1;shape=mxgraph.aws4.nat_gateway;" vertex="1" parent="U6CJ4-wO5lqKbuCxZ8Id-1">
          <mxGeometry x="130" y="330" width="35.5" height="35.5" as="geometry" />
        </mxCell>
        <mxCell id="U6CJ4-wO5lqKbuCxZ8Id-7" value="igw" style="sketch=0;outlineConnect=0;fontColor=#232F3E;gradientColor=none;fillColor=#8C4FFF;strokeColor=none;dashed=0;verticalLabelPosition=bottom;verticalAlign=top;align=center;html=1;fontSize=12;fontStyle=0;aspect=fixed;pointerEvents=1;shape=mxgraph.aws4.internet_gateway;" vertex="1" parent="U6CJ4-wO5lqKbuCxZ8Id-1">
          <mxGeometry x="50" y="330.5" width="35" height="35" as="geometry" />
        </mxCell>
        <mxCell id="U6CJ4-wO5lqKbuCxZ8Id-19" style="edgeStyle=orthogonalEdgeStyle;rounded=0;orthogonalLoop=1;jettySize=auto;html=1;" edge="1" parent="U6CJ4-wO5lqKbuCxZ8Id-1" source="U6CJ4-wO5lqKbuCxZ8Id-15" target="U6CJ4-wO5lqKbuCxZ8Id-17">
          <mxGeometry relative="1" as="geometry" />
        </mxCell>
        <mxCell id="U6CJ4-wO5lqKbuCxZ8Id-20" style="edgeStyle=orthogonalEdgeStyle;rounded=0;orthogonalLoop=1;jettySize=auto;html=1;" edge="1" parent="U6CJ4-wO5lqKbuCxZ8Id-1" source="U6CJ4-wO5lqKbuCxZ8Id-15" target="U6CJ4-wO5lqKbuCxZ8Id-18">
          <mxGeometry relative="1" as="geometry" />
        </mxCell>
        <mxCell id="U6CJ4-wO5lqKbuCxZ8Id-14" value="s3 bucket" style="sketch=0;outlineConnect=0;fontColor=#232F3E;gradientColor=none;fillColor=#7AA116;strokeColor=none;dashed=0;verticalLabelPosition=bottom;verticalAlign=top;align=center;html=1;fontSize=12;fontStyle=0;aspect=fixed;pointerEvents=1;shape=mxgraph.aws4.bucket_with_objects;" vertex="1" parent="UEzPUAAOIrF-is8g5C7q-74">
          <mxGeometry x="529.75" y="110" width="57.69" height="60" as="geometry" />
        </mxCell>
        <mxCell id="U6CJ4-wO5lqKbuCxZ8Id-23" value="certificate" style="sketch=0;outlineConnect=0;fontColor=#232F3E;gradientColor=none;fillColor=#7AA116;strokeColor=none;dashed=0;verticalLabelPosition=bottom;verticalAlign=top;align=center;html=1;fontSize=12;fontStyle=0;aspect=fixed;pointerEvents=1;shape=mxgraph.aws4.certificate_manager;" vertex="1" parent="UEzPUAAOIrF-is8g5C7q-74">
          <mxGeometry x="160" y="480" width="30.26" height="40" as="geometry" />
        </mxCell>
        <mxCell id="U6CJ4-wO5lqKbuCxZ8Id-24" value="dns record" style="sketch=0;outlineConnect=0;fontColor=#232F3E;gradientColor=none;fillColor=#8C4FFF;strokeColor=none;dashed=0;verticalLabelPosition=bottom;verticalAlign=top;align=center;html=1;fontSize=12;fontStyle=0;aspect=fixed;pointerEvents=1;shape=mxgraph.aws4.route_53_readiness_checks;" vertex="1" parent="UEzPUAAOIrF-is8g5C7q-74">
          <mxGeometry x="80" y="480" width="40" height="40" as="geometry" />
        </mxCell>
        <mxCell id="U6CJ4-wO5lqKbuCxZ8Id-25" style="edgeStyle=orthogonalEdgeStyle;rounded=0;orthogonalLoop=1;jettySize=auto;html=1;startArrow=classic;startFill=1;" edge="1" parent="UEzPUAAOIrF-is8g5C7q-74" source="U6CJ4-wO5lqKbuCxZ8Id-18" target="U6CJ4-wO5lqKbuCxZ8Id-14">
          <mxGeometry relative="1" as="geometry" />
        </mxCell>
        <mxCell id="U6CJ4-wO5lqKbuCxZ8Id-26" style="edgeStyle=orthogonalEdgeStyle;rounded=0;orthogonalLoop=1;jettySize=auto;html=1;startArrow=classic;startFill=1;" edge="1" parent="UEzPUAAOIrF-is8g5C7q-74" source="U6CJ4-wO5lqKbuCxZ8Id-17" target="U6CJ4-wO5lqKbuCxZ8Id-14">
          <mxGeometry relative="1" as="geometry" />
        </mxCell>
        <mxCell id="U6CJ4-wO5lqKbuCxZ8Id-29" value="instance role" style="sketch=0;outlineConnect=0;fontColor=#232F3E;gradientColor=none;fillColor=#DD344C;strokeColor=none;dashed=0;verticalLabelPosition=bottom;verticalAlign=top;align=center;html=1;fontSize=12;fontStyle=0;aspect=fixed;pointerEvents=1;shape=mxgraph.aws4.role;" vertex="1" parent="UEzPUAAOIrF-is8g5C7q-74">
          <mxGeometry x="529.75" y="330" width="45.45" height="25.64" as="geometry" />
        </mxCell>
        <mxCell id="U6CJ4-wO5lqKbuCxZ8Id-33" style="edgeStyle=orthogonalEdgeStyle;rounded=0;orthogonalLoop=1;jettySize=auto;html=1;entryX=0.75;entryY=1;entryDx=0;entryDy=0;" edge="1" parent="UEzPUAAOIrF-is8g5C7q-74" source="U6CJ4-wO5lqKbuCxZ8Id-32" target="U6CJ4-wO5lqKbuCxZ8Id-16">
          <mxGeometry relative="1" as="geometry" />
        </mxCell>
        <mxCell id="U6CJ4-wO5lqKbuCxZ8Id-32" value="cloudwatch alarms" style="sketch=0;outlineConnect=0;fontColor=#232F3E;gradientColor=none;fillColor=#E7157B;strokeColor=none;dashed=0;verticalLabelPosition=bottom;verticalAlign=top;align=center;html=1;fontSize=12;fontStyle=0;aspect=fixed;pointerEvents=1;shape=mxgraph.aws4.alarm;" vertex="1" parent="UEzPUAAOIrF-is8g5C7q-74">
          <mxGeometry x="530" y="410" width="45" height="45" as="geometry" />
        </mxCell>
        <mxCell id="U6CJ4-wO5lqKbuCxZ8Id-28" style="edgeStyle=orthogonalEdgeStyle;rounded=0;orthogonalLoop=1;jettySize=auto;html=1;" edge="1" parent="1" source="U6CJ4-wO5lqKbuCxZ8Id-27" target="U6CJ4-wO5lqKbuCxZ8Id-15">
          <mxGeometry relative="1" as="geometry" />
        </mxCell>
        <mxCell id="U6CJ4-wO5lqKbuCxZ8Id-27" value="internet" style="image;aspect=fixed;perimeter=ellipsePerimeter;html=1;align=center;shadow=0;dashed=0;spacingTop=3;image=img/lib/active_directory/internet_cloud.svg;" vertex="1" parent="1">
          <mxGeometry x="40" y="258.5" width="100" height="63" as="geometry" />
        </mxCell>
        <mxCell id="U6CJ4-wO5lqKbuCxZ8Id-31" value="VPC configuration:&lt;br&gt;&lt;div&gt;&lt;ul&gt;&lt;li&gt;2 availability zones in the region&lt;/li&gt;&lt;li&gt;A public and private subnet per az&lt;/li&gt;&lt;li&gt;Equally partitioned CIDR address spaces per subnet&lt;/li&gt;&lt;li&gt;A NAT gateway and EIP per public subnet&lt;/li&gt;&lt;li&gt;A single IGW for all public subnets to use&lt;/li&gt;&lt;/ul&gt;&lt;/div&gt;" style="rounded=1;arcSize=9;fillColor=#F7F8F9;align=left;spacingLeft=5;strokeColor=#DEE1E6;html=1;strokeWidth=2;fontColor=#596780;fontSize=12" vertex="1" parent="1">
          <mxGeometry x="320" y="620" width="340" height="120" as="geometry" />
        </mxCell>
      </root>
    </mxGraphModel>
  </diagram>
</mxfile>
